# xmcd
#
# Track frame offsets:
#	150
#	6777
#	24192
#	36700
#	55337
#	72885
#	90732
#	105330
#	120552
#	134730
#	147987
#	161992
#	178462
#	187932
#	202937
#
# Disc length: 2790 seconds
#
# Revision: 1
# Processed by: cddbd v1.5.1PL2 Copyright (c) Steve Scherf et al.
# Submitted via: audiograbber 1.81.01
#
DISCID=d70ae40f
DTITLE=Paul Joses - Roadstories
DYEAR=2006
DGENRE=Blues
TTITLE0=Intro
TTITLE1=Amsterdam
TTITLE2=Roadstories
TTITLE3=Fools and Dreamers
TTITLE4=Gravy Train
TTITLE5=Nearly Fell in Love
TTITLE6=Highland Way
TTITLE7=Secrets
TTITLE8=Naked in the Light
TTITLE9=Will (Instrumental)
TTITLE10=Kairo Lights
TTITLE11=Homewards Again
TTITLE12=15 Miles
TTITLE13=Eindhoven on a sunny afternoon
TTITLE14=Outro
EXTD=
EXTT0=
EXTT1=
EXTT2=
EXTT3=
EXTT4=
EXTT5=
EXTT6=
EXTT7=
EXTT8=
EXTT9=
EXTT10=
EXTT11=
EXTT12=
EXTT13=
EXTT14=
PLAYORDER=
